<svg width="48" height="18" viewBox="0 0 48 18" fill="none" xmlns="http://www.w3.org/2000/svg">
<path d="M11.2357 7.05215C11.2357 7.73224 10.7103 8.28411 10.0628 8.28411C9.41527 8.28411 8.88984 7.73224 8.88984 7.05215C8.88984 6.37206 9.41527 5.82019 10.0628 5.82019C10.7103 5.82019 11.2357 6.37206 11.2357 7.05215Z" fill="#72A52E"/>
<path d="M24.1538 7.05215C24.1538 7.73224 23.6283 8.28411 22.9808 8.28411C22.3333 8.28411 21.8079 7.73224 21.8079 7.05215C21.8079 6.37206 22.3333 5.82019 22.9808 5.82019C23.6283 5.82019 24.1538 6.37206 24.1538 7.05215Z" fill="#FFDE1B"/>
<path d="M15.9646 16.0657H0V17.8384H15.9646V16.0657Z" fill="#85A529"/>
<path d="M47.8883 16.0657H31.9238V17.8384H47.8883V16.0657Z" fill="#FFDB00"/>
<path d="M31.9291 16.0656H15.9645V17.8382H31.9291V16.0656Z" fill="white"/>
<path d="M47.6019 11.6957C47.7558 11.8407 47.8354 12.0413 47.8354 12.3033C47.8354 12.5765 47.7558 12.7883 47.6019 12.9388C47.448 13.0893 47.2251 13.1674 46.9385 13.1674H46.4449V13.8698H46.0097V11.4895H46.9385C47.2251 11.4839 47.448 11.5508 47.6019 11.6957ZM47.2941 12.649C47.379 12.5765 47.4268 12.465 47.4268 12.3145C47.4268 12.1695 47.3843 12.0581 47.2941 11.9856C47.2092 11.9131 47.0818 11.8741 46.9173 11.8741H46.4449V12.7549H46.9173C47.0818 12.7604 47.2092 12.7214 47.2941 12.649Z" fill="white"/>
<path d="M46.4237 10.5021C46.5246 10.608 46.6626 10.6637 46.8324 10.6637C47.0022 10.6637 47.1349 10.608 47.2358 10.5021C47.3366 10.3961 47.3844 10.2456 47.3844 10.0617V8.66248H47.8196V10.0617C47.8196 10.2679 47.7771 10.4463 47.6975 10.6024C47.6179 10.7529 47.5064 10.87 47.3578 10.9536C47.2092 11.0372 47.0341 11.0762 46.8324 11.0762C46.6307 11.0762 46.4556 11.0372 46.3017 10.9536C46.153 10.87 46.0363 10.7529 45.9567 10.6024C45.8771 10.4519 45.8346 10.2679 45.8346 10.0617V8.66248H46.2698V10.0617C46.2698 10.2456 46.3229 10.3961 46.4237 10.5021Z" fill="white"/>
<path d="M47.9998 7.05154C47.9998 7.73163 47.4743 8.2835 46.8268 8.2835C46.1793 8.2835 45.6539 7.73163 45.6539 7.05154C45.6539 6.37145 46.1793 5.81958 46.8268 5.81958C47.4743 5.81958 47.9998 6.37145 47.9998 7.05154Z" fill="#72A52E"/>
<path d="M47.3525 5.39581L46.9597 4.69343C46.9438 4.69343 46.9173 4.699 46.8801 4.699H46.3706V5.40139H45.9354V3.0155H46.8801C47.172 3.0155 47.4002 3.08797 47.5594 3.22733C47.7187 3.37227 47.7983 3.57295 47.7983 3.83495C47.7983 4.01891 47.7611 4.18057 47.6815 4.30879C47.6072 4.44257 47.4958 4.53734 47.3472 4.60423L47.846 5.39581H47.3525ZM46.3653 4.29206H46.8748C47.0393 4.29206 47.1614 4.25304 47.2516 4.18057C47.3365 4.1081 47.379 3.99661 47.379 3.8461C47.379 3.70117 47.3365 3.58968 47.2516 3.51721C47.1667 3.44474 47.0393 3.40572 46.8748 3.40572H46.3653V4.29206Z" fill="white"/>
<path d="M47.4322 1.38813H47.809V2.2912C47.6922 2.38596 47.5489 2.45843 47.3897 2.51975C47.2305 2.57549 47.0713 2.60894 46.9121 2.60894C46.6891 2.60894 46.4875 2.5532 46.307 2.44728C46.1266 2.33579 45.978 2.19085 45.8771 2.00132C45.771 1.81179 45.7179 1.60553 45.7179 1.38255C45.7179 1.154 45.771 0.947745 45.8824 0.763788C45.9886 0.57983 46.1372 0.434893 46.3229 0.323403C46.5087 0.217488 46.7157 0.161743 46.9439 0.161743C47.1084 0.161743 47.2677 0.189615 47.4216 0.250934C47.5808 0.312254 47.7135 0.395871 47.8302 0.501786L47.5861 0.836255C47.5012 0.752638 47.4003 0.685745 47.2889 0.635574C47.1774 0.585404 47.0607 0.563106 46.9492 0.563106C46.8059 0.563106 46.6732 0.596552 46.5565 0.669021C46.4344 0.741489 46.3442 0.836255 46.2752 0.964468C46.2062 1.08711 46.169 1.22647 46.169 1.37141C46.169 1.52192 46.2062 1.6557 46.2752 1.78392C46.3442 1.90656 46.4397 2.0069 46.5565 2.07937C46.6732 2.15183 46.8059 2.19086 46.9492 2.19086C47.0288 2.19086 47.1084 2.17971 47.1934 2.15183C47.2783 2.12396 47.3579 2.09051 47.4375 2.04034V1.38813H47.4322Z" fill="white"/>
<path d="M47.5327 1.38794H47.0285V1.78373H47.5327V1.38794Z" fill="#12100B"/>
<path d="M41.7319 7.2356H39.54V8.80202H41.7319V7.2356Z" fill="white"/>
<path d="M41.7214 7.23618H43.2127V11.9801C42.5918 12.4985 41.8647 12.911 41.0314 13.2176C40.1981 13.5242 39.3755 13.6803 38.5529 13.6803C37.3693 13.6803 36.2866 13.3904 35.2994 12.8051C34.3176 12.2198 33.5374 11.4226 32.9695 10.4081C32.4016 9.3935 32.115 8.28418 32.115 7.07451C32.115 5.87043 32.4016 4.76668 32.9748 3.76327C33.548 2.75986 34.3335 1.96829 35.3313 1.38854C36.3291 0.808794 37.4277 0.518921 38.6378 0.518921C39.4923 0.518921 40.3255 0.680581 41.1429 0.998327C41.9549 1.31607 42.6608 1.75646 43.2605 2.30833L42.2946 3.60161C41.801 3.12221 41.2384 2.74871 40.5962 2.48671C39.9593 2.22471 39.3065 2.09093 38.6378 2.09093C37.7567 2.09093 36.95 2.3139 36.2123 2.75429C35.4746 3.19467 34.8908 3.80229 34.4662 4.56042C34.0363 5.32413 33.824 6.1603 33.824 7.06894C33.824 7.97758 34.0416 8.81933 34.4768 9.58861C34.912 10.3579 35.4958 10.9655 36.2335 11.417C36.9713 11.8686 37.778 12.0915 38.659 12.0915C39.1738 12.0915 39.6992 12.0024 40.23 11.824C40.7607 11.6456 41.2596 11.3947 41.7161 11.077V7.23618H41.7214Z" fill="white"/>
<path d="M28.819 0.630005H27.1312V13.5517H28.819V0.630005Z" fill="white"/>
<path d="M21.2454 2.51975C20.6245 2.22988 19.9876 2.08494 19.3295 2.08494C18.4644 2.08494 17.6683 2.30792 16.9412 2.74831C16.214 3.18869 15.6409 3.79074 15.2163 4.54887C14.797 5.307 14.5847 6.13759 14.5847 7.05181C14.5847 7.9493 14.797 8.7799 15.2163 9.5436C15.6355 10.3073 16.214 10.9094 16.9412 11.3553C17.6683 11.7957 18.4644 12.0187 19.3295 12.0187C19.9717 12.0187 20.6086 11.8793 21.2295 11.6062C21.8505 11.3274 22.4025 10.9484 22.8801 10.469L23.8991 11.634C23.2782 12.2751 22.5564 12.7768 21.739 13.1391C20.9164 13.5015 20.0884 13.6854 19.2446 13.6854C18.0716 13.6854 16.9995 13.3956 16.0283 12.8103C15.057 12.2249 14.2875 11.4278 13.7249 10.4188C13.1623 9.40982 12.881 8.29492 12.881 7.07968C12.881 5.87559 13.1623 4.77185 13.7355 3.76844C14.3034 2.76503 15.0783 1.97345 16.0654 1.39928C17.0473 0.819537 18.1353 0.529663 19.3189 0.529663C20.1734 0.529663 21.0013 0.696898 21.808 1.03694C22.6094 1.37698 23.3047 1.85082 23.8885 2.46958L22.8854 3.74057C22.4131 3.21099 21.8664 2.80963 21.2454 2.51975Z" fill="white"/>
<path d="M8.36443 2.51975C7.74347 2.22988 7.10658 2.08494 6.44847 2.08494C5.58336 2.08494 4.78726 2.30792 4.06014 2.74831C3.33303 3.18869 2.75984 3.79074 2.33525 4.54887C1.91596 5.307 1.70367 6.13759 1.70367 7.05181C1.70367 7.9493 1.91596 8.7799 2.33525 9.5436C2.75453 10.3073 3.33303 10.9094 4.06014 11.3553C4.78726 11.7957 5.58336 12.0187 6.44847 12.0187C7.09066 12.0187 7.72755 11.8793 8.34851 11.6062C8.96947 11.3274 9.52144 10.9484 9.9991 10.469L11.0181 11.634C10.3972 12.2751 9.67535 12.7768 8.85802 13.1391C8.03537 13.5015 7.20742 13.6854 6.36355 13.6854C5.19062 13.6854 4.11853 13.3956 3.14728 12.8103C2.17603 12.2249 1.40646 11.4278 0.843873 10.4188C0.281291 9.40981 0 8.29492 0 7.07968C0 5.87559 0.281291 4.77185 0.854488 3.76844C1.42238 2.76503 2.19725 1.97345 3.18443 1.39928C4.16629 0.819537 5.25431 0.529663 6.43785 0.529663C7.29234 0.529663 8.12029 0.696898 8.92701 1.03694C9.72843 1.37698 10.4237 1.85082 11.0075 2.46958L10.0044 3.74057C9.53205 3.21099 8.98539 2.80963 8.36443 2.51975Z" fill="white"/>
</svg>
